<svg width="24" height="24" viewBox="0 0 24 24" fill="none" xmlns="http://www.w3.org/2000/svg">
<mask id="mask0_340_35" style="mask-type:alpha" maskUnits="userSpaceOnUse" x="0" y="0" width="24" height="24">
<rect width="24" height="24" fill="#D9D9D9"/>
</mask>
<g mask="url(#mask0_340_35)">
<path d="M19.8199 18.95L15.9725 15.1034C17.0876 13.7647 17.6437 12.0475 17.525 10.3092C17.4063 8.57088 16.622 6.94524 15.3353 5.77045C14.0486 4.59565 12.3584 3.96216 10.6165 4.00175C8.87462 4.04134 7.21503 4.75096 5.98299 5.98299C4.75096 7.21503 4.04134 8.87462 4.00175 10.6165C3.96216 12.3584 4.59565 14.0486 5.77045 15.3353C6.94524 16.622 8.57088 17.4063 10.3092 17.525C12.0475 17.6437 13.7647 17.0876 15.1034 15.9725L18.95 19.8199C19.0071 19.877 19.0749 19.9223 19.1496 19.9532C19.2242 19.9841 19.3042 20 19.3849 20C19.4657 20 19.5457 19.9841 19.6203 19.9532C19.6949 19.9223 19.7627 19.877 19.8199 19.8199C19.877 19.7627 19.9223 19.6949 19.9532 19.6203C19.9841 19.5457 20 19.4657 20 19.3849C20 19.3042 19.9841 19.2242 19.9532 19.1496C19.9223 19.0749 19.877 19.0071 19.8199 18.95ZM5.24642 10.7789C5.24642 9.68467 5.57089 8.61502 6.17881 7.70521C6.78672 6.7954 7.65078 6.08629 8.6617 5.66755C9.67263 5.24882 10.785 5.13925 11.8582 5.35273C12.9314 5.5662 13.9172 6.09311 14.6909 6.86684C15.4647 7.64057 15.9916 8.62636 16.205 9.69955C16.4185 10.7727 16.309 11.8851 15.8902 12.8961C15.4715 13.907 14.7624 14.771 13.8526 15.379C12.9427 15.9869 11.8731 16.3113 10.7789 16.3113C9.31208 16.3097 7.90582 15.7263 6.86864 14.6891C5.83145 13.6519 5.24805 12.2457 5.24642 10.7789Z" fill="#A1A1A1" stroke="#A1A1A1" stroke-width="0.5"/>
</g>
</svg>
